# xmcd
# 
# Track frame offsets:
#     182
#     22395
#     47385
#     72652
#     88900
#     152690
# 
# Disc length: 2265
# 
# Revision: 7
# Processed by: cddbd v1.5.2PL0 Copyright (c) Steve Scherf et al.
# Submitted via: BonkEnc v1.0.8
# 
DISCID=4f08d706
DTITLE=Allan Holdsworth - Metal Fatigue
DYEAR=1985
DGENRE=Fusion
TTITLE0=Metal Fatigue
TTITLE1=Home
TTITLE2=Devil Take the Hindmost
TTITLE3=Panic Station
TTITLE4=The Un-Merry-Go-Round
TTITLE5=In the Mystery
EXTD=1985\nAllan Holdsworth: guitar, guitar synthesizer\nJimmy Johnson: bass\nChad Wackerman: drums, percussion\nPaul Williams: vocals\nGary Husband: drums\nGary Willis: bass\nAlan Pasqua: keyboards\nPaul Korda: vocals\n YEAR: 1985
EXTT0=
EXTT1=
EXTT2=
EXTT3=
EXTT4=Gary Willis: bass\nGary Husband: drums\nAlan Pasqua: keyboards\n
EXTT5=Paul Korda: vocals\nMac Hine: drums, percussion\n
PLAYORDER=
